<svg xmlns="http://www.w3.org/2000/svg" width="141.688" height="141.688" viewBox="0 0 141.688 141.688">
  <g id="Grupo_1194305" data-name="Grupo 1194305" transform="translate(-374.746 -6509.238)">
    <g id="Grupo_1177320" data-name="Grupo 1177320" transform="translate(-1.98 -1379.43)">
      <g id="Grupo_1177319" data-name="Grupo 1177319" transform="translate(-327.941 1733.668)">
        <rect id="Rectángulo_402033" data-name="Rectángulo 402033" width="141.688" height="141.688" rx="5" transform="translate(704.668 6155)" fill="#104936"/>
      </g>
    </g>
    <g id="OUTLINE" transform="translate(329.844 6506.93)">
      <path id="Trazado_1018322" data-name="Trazado 1018322" d="M116.647,101.979h-1.8V124.5h-9.009V51.9l4.5-4.5,4.5,4.5V69.547h1.8V53.705l3.121,3.121a4.51,4.51,0,0,0,6.37,0l15.591-15.591a4.5,4.5,0,0,0,1-4.858l-1.359-3.4,7.31,6.266a6.3,6.3,0,0,1,2.2,4.788v16.5h1.8v-16.5a8.1,8.1,0,0,0-2.831-6.156l-9.927-8.509-3.521-8.8h0l0-.011a.9.9,0,0,0-.832-.556H85.116a.9.9,0,0,0-.832.556l0,.011h0l-3.521,8.8-9.927,8.509A8.1,8.1,0,0,0,68,44.035v74.16a8.117,8.117,0,0,0,8.108,8.108h48.647v-1.8h-8.108ZM79.628,37.046,85.445,22.5l23.621,23.621-9.427,9.427a2.705,2.705,0,0,1-3.822,0L80.227,39.961A2.7,2.7,0,0,1,79.628,37.046Zm30.712,7.8L97.469,31.98a31.5,31.5,0,0,1,25.743,0Zm30.114-4.89L124.864,55.552a2.705,2.705,0,0,1-3.822,0l-9.427-9.427L135.236,22.5l5.817,14.543a2.7,2.7,0,0,1-.6,2.915ZM133.39,21.8l-8.821,8.821a33.3,33.3,0,0,0-28.457,0L87.291,21.8ZM69.8,118.194V44.035A6.3,6.3,0,0,1,72,39.247l7.31-6.266-1.359,3.4a4.5,4.5,0,0,0,1,4.858L94.543,56.826a4.51,4.51,0,0,0,6.37,0l3.121-3.121v70.8H76.108a6.313,6.313,0,0,1-6.306-6.306Z" transform="translate(0)" fill="#c0f1e1" stroke="#c0f1e1" stroke-width="1"/>
      <rect id="Rectángulo_463024" data-name="Rectángulo 463024" width="4.556" height="1.519" transform="translate(108.153 57.965)" fill="#c0f1e1" stroke="#c0f1e1" stroke-width="1"/>
      <rect id="Rectángulo_463025" data-name="Rectángulo 463025" width="4.556" height="3.037" transform="translate(108.153 71.633)" fill="#c0f1e1" stroke="#c0f1e1" stroke-width="1"/>
      <rect id="Rectángulo_463026" data-name="Rectángulo 463026" width="4.556" height="1.519" transform="translate(108.153 86.819)" fill="#c0f1e1" stroke="#c0f1e1" stroke-width="1"/>
      <rect id="Rectángulo_463027" data-name="Rectángulo 463027" width="4.556" height="3.037" transform="translate(108.153 100.486)" fill="#c0f1e1" stroke="#c0f1e1" stroke-width="1"/>
      <rect id="Rectángulo_463028" data-name="Rectángulo 463028" width="4.556" height="1.519" transform="translate(108.153 115.672)" fill="#c0f1e1" stroke="#c0f1e1" stroke-width="1"/>
      <rect id="Rectángulo_463029" data-name="Rectángulo 463029" width="5.096" height="1.802" transform="translate(120.514 50.893) rotate(-45)" fill="#c0f1e1" stroke="#c0f1e1" stroke-width="1"/>
      <path id="Trazado_1018323" data-name="Trazado 1018323" d="M324.635,228.295A24.323,24.323,0,1,0,288.6,249.607v18.326a.9.9,0,0,0,1.3.806l10.407-5.2,10.407,5.2a.9.9,0,0,0,1.3-.806V249.607A24.342,24.342,0,0,0,324.635,228.295Zm-14.414,38.18-9.507-4.753a.9.9,0,0,0-.806,0l-9.507,4.753V250.506a24.3,24.3,0,0,0,19.819,0Zm-9.909-15.659a22.522,22.522,0,1,1,22.522-22.522A22.522,22.522,0,0,1,300.312,250.816Z" transform="translate(-161.144 -142.532)" fill="#c0f1e1" stroke="#c0f1e1" stroke-width="1"/>
      <path id="Trazado_1018324" data-name="Trazado 1018324" d="M346.264,255.78a.9.9,0,0,0-1-.049l-8.236,4.942-4.942-8.236a.9.9,0,0,0-1.545,0l-4.942,8.236-8.236-4.942a.9.9,0,0,0-1.337.991l3.577,14.306v7.1a.9.9,0,0,0,.9.9h21.621a.9.9,0,0,0,.9-.9v-7.1l3.576-14.306A.9.9,0,0,0,346.264,255.78Zm-5.041,21.444H321.4v-5.405h19.819Zm.2-7.207H321.207L318.3,258.4l7.144,4.286a.9.9,0,0,0,1.236-.309l4.633-7.721,4.633,7.721a.9.9,0,0,0,1.236.309l7.144-4.286Z" transform="translate(-192.146 -179.75)" fill="#c0f1e1" stroke="#c0f1e1" stroke-width="1"/>
    </g>
  </g>
</svg>
